<svg width="111" height="30" viewBox="0 0 111 30" fill="none" xmlns="http://www.w3.org/2000/svg">
<path d="M96.4735 30H13.6688C12.9577 30 12.2534 29.8599 11.5965 29.5878C10.9395 29.3157 10.3427 28.9169 9.84016 28.4141C9.3376 27.9114 8.93917 27.3146 8.66766 26.6579C8.39615 26.0012 8.25688 25.2974 8.25782 24.5869V5.41311C8.25688 4.70259 8.39615 3.99884 8.66766 3.34213C8.93917 2.68543 9.3376 2.08864 9.84016 1.58589C10.3427 1.08315 10.9395 0.684304 11.5965 0.412183C12.2534 0.140062 12.9577 -6.16685e-07 13.6688 0H96.4735C97.2076 0.00054788 97.9338 0.150501 98.608 0.440723C99.2821 0.730945 99.89 1.15535 100.395 1.68803L109.513 11.2749C110.467 12.2806 111 13.6139 111 15C111 16.3861 110.467 17.7194 109.513 18.7251L100.366 28.312C99.8648 28.8412 99.2615 29.2636 98.5926 29.5537C97.9236 29.8438 97.2027 29.9956 96.4735 30Z" fill="#178954" fill-opacity="0.05"/>
<path d="M93.3446 30H10.5399C9.82875 30 9.12451 29.8599 8.46755 29.5878C7.81059 29.3157 7.2138 28.9169 6.71125 28.4141C6.2087 27.9114 5.81027 27.3146 5.53876 26.6579C5.26725 26.0012 5.12797 25.2974 5.12891 24.5869V5.41311C5.12797 4.70259 5.26725 3.99884 5.53876 3.34213C5.81027 2.68543 6.2087 2.08864 6.71125 1.58589C7.2138 1.08315 7.81059 0.684304 8.46755 0.412183C9.12451 0.140062 9.82875 -6.16685e-07 10.5399 0H93.3446C94.0786 0.00054788 94.8049 0.150501 95.4791 0.440723C96.1532 0.730945 96.761 1.15535 97.2656 1.68803L106.384 11.2749C107.339 12.2806 107.871 13.6139 107.871 15C107.871 16.3861 107.339 17.7194 106.384 18.7251L97.2371 28.312C96.7359 28.8412 96.1326 29.2636 95.4637 29.5537C94.7947 29.8438 94.0738 29.9956 93.3446 30Z" fill="#178954" fill-opacity="0.3"/>
<path d="M88.2157 30H5.41102C4.69984 30 3.9956 29.8599 3.33864 29.5878C2.68169 29.3157 2.08489 28.9169 1.58234 28.4141C1.07979 27.9114 0.681359 27.3146 0.409851 26.6579C0.138342 26.0012 -0.000932303 25.2974 4.69661e-06 24.5869V5.41311C-0.000932303 4.70259 0.138342 3.99884 0.409851 3.34213C0.681359 2.68543 1.07979 2.08864 1.58234 1.58589C2.08489 1.08315 2.68169 0.684304 3.33864 0.412183C3.9956 0.140062 4.69984 -6.16685e-07 5.41102 0H88.2157C88.9497 0.00054788 89.676 0.150501 90.3502 0.440723C91.0243 0.730945 91.6321 1.15535 92.1367 1.68803L101.255 11.2749C102.21 12.2806 102.742 13.6139 102.742 15C102.742 16.3861 102.21 17.7194 101.255 18.7251L92.1082 28.312C91.6069 28.8412 91.0037 29.2636 90.3347 29.5537C89.6658 29.8438 88.9449 29.9956 88.2157 30Z" fill="#178954"/>
<path d="M16.9508 9.662L16.7828 11.006H13.5348L13.2548 13.372H16.3908L16.2228 14.716H13.0868L12.5548 19H11.1268L12.2748 9.662H16.9508ZM17.1776 19L17.9056 13.106H19.2776L19.2076 13.638C19.2776 13.554 19.5016 13.302 19.8376 13.134C20.1456 12.98 20.4536 12.952 20.7336 12.952C21.0136 12.952 21.3496 12.994 21.7416 13.232L21.0696 14.478C20.8596 14.338 20.6216 14.268 20.3416 14.268C19.9216 14.268 19.6276 14.422 19.4316 14.618C19.0816 14.982 18.9696 15.654 18.9276 15.948L18.5496 19H17.1776ZM25.9352 17.012L27.0132 17.656C26.7192 18.146 26.3132 18.524 25.9212 18.762C25.5852 18.958 25.0532 19.182 24.2692 19.182C23.5412 19.182 22.9112 18.986 22.3792 18.44C21.9172 17.978 21.5812 17.264 21.5812 16.34C21.5812 15.332 21.9592 14.45 22.6032 13.82C23.1772 13.26 23.8772 12.952 24.7592 12.952C25.3052 12.952 25.9912 13.064 26.5372 13.638C26.9852 14.1 27.2652 14.842 27.2652 15.696C27.2652 15.878 27.2512 16.116 27.1952 16.382H22.9812C22.9812 16.802 23.1352 17.278 23.4152 17.572C23.5972 17.768 23.9192 17.95 24.3812 17.95C24.7032 17.95 25.0532 17.852 25.3192 17.684C25.5572 17.53 25.7952 17.264 25.9352 17.012ZM23.1912 15.262H25.9352C25.8932 14.968 25.7532 14.632 25.5852 14.45C25.3892 14.24 25.0672 14.128 24.7312 14.128C24.3812 14.128 24.0312 14.24 23.7372 14.478C23.4992 14.674 23.3032 14.982 23.1912 15.262ZM32.7848 17.012L33.8628 17.656C33.5688 18.146 33.1628 18.524 32.7708 18.762C32.4348 18.958 31.9028 19.182 31.1188 19.182C30.3908 19.182 29.7608 18.986 29.2288 18.44C28.7668 17.978 28.4308 17.264 28.4308 16.34C28.4308 15.332 28.8088 14.45 29.4528 13.82C30.0268 13.26 30.7268 12.952 31.6088 12.952C32.1548 12.952 32.8408 13.064 33.3868 13.638C33.8348 14.1 34.1148 14.842 34.1148 15.696C34.1148 15.878 34.1008 16.116 34.0448 16.382H29.8308C29.8308 16.802 29.9848 17.278 30.2648 17.572C30.4468 17.768 30.7688 17.95 31.2308 17.95C31.5528 17.95 31.9028 17.852 32.1688 17.684C32.4068 17.53 32.6448 17.264 32.7848 17.012ZM30.0408 15.262H32.7848C32.7428 14.968 32.6028 14.632 32.4348 14.45C32.2388 14.24 31.9168 14.128 31.5808 14.128C31.2308 14.128 30.8808 14.24 30.5868 14.478C30.3488 14.674 30.1528 14.982 30.0408 15.262ZM44.904 11.062L43.672 11.734C43.602 11.468 43.448 11.23 43.252 11.076C42.986 10.88 42.608 10.81 42.328 10.81C41.782 10.81 41.446 11.006 41.264 11.174C41.04 11.37 40.872 11.678 40.872 12.014C40.872 12.336 41.012 12.546 41.208 12.728C41.502 12.994 41.768 13.064 42.118 13.218L42.874 13.554C43.476 13.82 43.84 14.142 44.05 14.408C44.428 14.87 44.54 15.36 44.54 15.934C44.54 17.012 44.162 17.74 43.686 18.244C42.93 19.028 41.978 19.182 41.25 19.182C40.522 19.182 39.892 19.028 39.374 18.524C38.912 18.076 38.534 17.32 38.506 16.424L39.948 16.116C39.934 16.48 40.018 17.04 40.27 17.376C40.494 17.67 40.858 17.866 41.46 17.866C41.964 17.866 42.314 17.698 42.566 17.474C42.93 17.152 43.098 16.578 43.098 16.102C43.098 15.724 42.958 15.458 42.734 15.22C42.468 14.94 42.09 14.772 41.782 14.632L41.068 14.31C40.732 14.156 40.284 13.918 39.962 13.568C39.668 13.232 39.444 12.756 39.444 12.196C39.444 12.07 39.444 11.174 40.186 10.39C40.69 9.858 41.418 9.494 42.412 9.494C42.874 9.494 43.476 9.564 44.022 9.928C44.526 10.264 44.778 10.698 44.904 11.062ZM45.7108 19L46.9708 8.794H48.3428L47.7408 13.61C47.8528 13.484 48.0488 13.316 48.3288 13.176C48.6648 13.008 49.0008 12.952 49.3368 12.952C50.0508 12.952 50.4848 13.204 50.7368 13.456C51.0448 13.764 51.2688 14.268 51.2688 14.884C51.2688 15.094 51.2408 15.346 51.1428 16.102L50.7788 19H49.4068L49.7848 15.962C49.8548 15.444 49.8548 15.234 49.8548 15.178C49.8548 14.94 49.8128 14.632 49.5888 14.422C49.4068 14.254 49.1408 14.184 48.8888 14.184C48.3988 14.184 48.1188 14.394 48.0068 14.506C47.6428 14.856 47.5168 15.458 47.4328 16.158L47.0828 19H45.7108ZM53.2474 13.106H54.6194L53.8914 19H52.5194L53.2474 13.106ZM53.3314 10.81C53.3314 10.544 53.4294 10.278 53.6254 10.082C53.7934 9.914 54.0454 9.788 54.3394 9.788C54.5774 9.788 54.7734 9.872 54.8994 9.998C55.0254 10.124 55.1234 10.306 55.1234 10.53C55.1234 10.754 55.0254 11.048 54.8434 11.244C54.6754 11.426 54.3954 11.552 54.1014 11.552C53.8354 11.552 53.6674 11.454 53.5554 11.342C53.4294 11.23 53.3314 11.034 53.3314 10.81ZM57.0926 18.314L56.6166 22.206H55.2446L56.3646 13.106H57.7366L57.6526 13.75C57.8486 13.484 58.0726 13.316 58.3526 13.19C58.7026 13.022 59.0386 12.952 59.4026 12.952C60.1446 12.952 60.8446 13.26 61.2786 13.708C61.7126 14.156 62.0206 14.856 62.0206 15.71C62.0206 16.732 61.6006 17.726 61.0266 18.342C60.5226 18.874 59.8926 19.196 59.0666 19.196C58.5766 19.196 58.1146 19.098 57.7366 18.874C57.4846 18.72 57.2606 18.51 57.0926 18.314ZM59.0806 14.184C58.6466 14.184 58.2686 14.268 57.9046 14.618C57.4986 15.01 57.2606 15.668 57.2606 16.326C57.2606 16.662 57.3166 17.138 57.6526 17.488C57.9046 17.754 58.2966 17.95 58.7726 17.95C59.2626 17.95 59.6266 17.782 59.9346 17.474C60.3126 17.096 60.6066 16.466 60.6066 15.822C60.6066 15.332 60.4386 14.912 60.1866 14.632C59.8926 14.31 59.5286 14.184 59.0806 14.184ZM64.5437 18.314L64.0677 22.206H62.6957L63.8157 13.106H65.1877L65.1037 13.75C65.2997 13.484 65.5237 13.316 65.8037 13.19C66.1537 13.022 66.4897 12.952 66.8537 12.952C67.5957 12.952 68.2957 13.26 68.7297 13.708C69.1637 14.156 69.4717 14.856 69.4717 15.71C69.4717 16.732 69.0517 17.726 68.4777 18.342C67.9737 18.874 67.3437 19.196 66.5177 19.196C66.0277 19.196 65.5657 19.098 65.1877 18.874C64.9357 18.72 64.7117 18.51 64.5437 18.314ZM66.5317 14.184C66.0977 14.184 65.7197 14.268 65.3557 14.618C64.9497 15.01 64.7117 15.668 64.7117 16.326C64.7117 16.662 64.7677 17.138 65.1037 17.488C65.3557 17.754 65.7477 17.95 66.2237 17.95C66.7137 17.95 67.0777 17.782 67.3857 17.474C67.7637 17.096 68.0577 16.466 68.0577 15.822C68.0577 15.332 67.8897 14.912 67.6377 14.632C67.3437 14.31 66.9797 14.184 66.5317 14.184ZM71.2669 13.106H72.6389L71.9109 19H70.5389L71.2669 13.106ZM71.3509 10.81C71.3509 10.544 71.4489 10.278 71.6449 10.082C71.8129 9.914 72.0649 9.788 72.3589 9.788C72.5969 9.788 72.7929 9.872 72.9189 9.998C73.0449 10.124 73.1429 10.306 73.1429 10.53C73.1429 10.754 73.0449 11.048 72.8629 11.244C72.6949 11.426 72.4149 11.552 72.1209 11.552C71.8549 11.552 71.6869 11.454 71.5749 11.342C71.4489 11.23 71.3509 11.034 71.3509 10.81ZM73.6421 19L74.3701 13.106H75.7421L75.6721 13.638C75.8541 13.414 76.0361 13.288 76.2601 13.176C76.6101 13.008 76.9181 12.952 77.2681 12.952C77.9821 12.952 78.4161 13.204 78.6681 13.456C78.9761 13.764 79.2001 14.24 79.2001 14.856C79.2001 15.08 79.1721 15.332 79.0741 16.102L78.7101 19H77.3381L77.7161 15.962C77.7861 15.444 77.7861 15.234 77.7861 15.178C77.7861 14.94 77.7441 14.632 77.5201 14.422C77.3381 14.254 77.0721 14.184 76.8201 14.184C76.3301 14.184 76.0501 14.394 75.9381 14.506C75.5741 14.856 75.4481 15.458 75.3641 16.158L75.0141 19H73.6421ZM85.393 13.75L85.477 13.106H86.849L86.135 18.846C86.051 19.56 85.897 20.666 85.267 21.366C84.903 21.772 84.175 22.22 82.999 22.22C82.411 22.22 81.781 22.094 81.263 21.66C80.633 21.128 80.395 20.302 80.367 19.658H81.697C81.711 19.98 81.837 20.4 82.075 20.652C82.369 20.946 82.761 20.988 83.069 20.988C83.377 20.988 83.825 20.932 84.175 20.582C84.553 20.204 84.665 19.63 84.735 19.098L84.833 18.342C84.315 19.084 83.559 19.182 83.125 19.182C82.495 19.182 81.823 18.986 81.263 18.426C80.773 17.936 80.451 17.264 80.451 16.326C80.451 15.374 80.815 14.436 81.501 13.764C82.103 13.176 82.747 12.952 83.657 12.952C84.049 12.952 84.805 12.994 85.393 13.75ZM83.741 14.184C83.209 14.184 82.733 14.394 82.439 14.702C82.075 15.08 81.879 15.71 81.879 16.256C81.879 16.844 82.103 17.25 82.313 17.474C82.565 17.74 82.943 17.95 83.391 17.95C83.811 17.95 84.217 17.81 84.581 17.446C84.889 17.138 85.211 16.62 85.211 15.808C85.211 15.402 85.113 14.954 84.763 14.604C84.539 14.38 84.203 14.184 83.741 14.184Z" fill="white"/>
</svg>
