<svg width="14" height="14" viewBox="0 0 14 14" fill="none" xmlns="http://www.w3.org/2000/svg">
<g clip-path="url(#clip0_1099_1064)">
<path d="M14 7C14 3.13404 10.866 0 7 0C3.13404 0 0 3.13404 0 7C0 10.2827 2.26016 13.0374 5.30908 13.7939V9.1392H3.86568V7H5.30908V6.07824C5.30908 3.69572 6.38736 2.5914 8.72648 2.5914C9.17 2.5914 9.93524 2.67848 10.2483 2.76528V4.70428C10.0831 4.68692 9.79608 4.67824 9.43964 4.67824C8.29192 4.67824 7.8484 5.11308 7.8484 6.24344V7H10.1349L9.74204 9.1392H7.8484V13.9488C11.3145 13.5302 14.0003 10.579 14.0003 7H14Z" fill="#0866FF"/>
<path d="M9.74159 9.13923L10.1344 7.00003H7.84795V6.24347C7.84795 5.11311 8.29147 4.67827 9.43919 4.67827C9.79563 4.67827 10.0826 4.68695 10.2478 4.70431V2.76531C9.93479 2.67823 9.16955 2.59143 8.72603 2.59143C6.38691 2.59143 5.30863 3.69575 5.30863 6.07827V7.00003H3.86523V9.13923H5.30863V13.794C5.85015 13.9284 6.41659 14 6.99955 14C7.28655 14 7.56963 13.9824 7.84767 13.9488V9.13923H9.74131H9.74159Z" fill="white"/>
</g>
<defs>
<clipPath id="clip0_1099_1064">
<rect width="14" height="14" fill="white"/>
</clipPath>
</defs>
</svg>
