<svg width="14" height="14" viewBox="0 0 14 14" fill="none" xmlns="http://www.w3.org/2000/svg">
<g clip-path="url(#clip0_1099_1065)">
<path d="M6.77143 1.21939C8.58067 1.21939 8.79492 1.22732 9.50645 1.25906C10.1677 1.28816 10.5248 1.39925 10.7629 1.49183C11.0776 1.6135 11.3051 1.76163 11.5405 1.99704C11.7786 2.2351 11.9241 2.45993 12.0457 2.7747C12.1383 3.01276 12.2494 3.37249 12.2785 4.03112C12.3102 4.74529 12.3182 4.95954 12.3182 6.76614C12.3182 8.57538 12.3102 8.78963 12.2785 9.50116C12.2494 10.1624 12.1383 10.5195 12.0457 10.7576C11.9241 11.0723 11.7759 11.2998 11.5405 11.5352C11.3025 11.7733 11.0776 11.9188 10.7629 12.0404C10.5248 12.133 10.1651 12.2441 9.50645 12.2732C8.79228 12.305 8.57803 12.3129 6.77143 12.3129C4.96219 12.3129 4.74794 12.305 4.03641 12.2732C3.37513 12.2441 3.01805 12.133 2.77999 12.0404C2.46522 11.9188 2.23775 11.7706 2.00233 11.5352C1.76427 11.2972 1.61879 11.0723 1.49712 10.7576C1.40454 10.5195 1.29345 10.1598 1.26435 9.50116C1.23261 8.78699 1.22468 8.57273 1.22468 6.76614C1.22468 4.9569 1.23261 4.74264 1.26435 4.03112C1.29345 3.36984 1.40454 3.01276 1.49712 2.7747C1.61879 2.45993 1.76692 2.23246 2.00233 1.99704C2.24039 1.75898 2.46522 1.6135 2.77999 1.49183C3.01805 1.39925 3.37778 1.28816 4.03641 1.25906C4.74794 1.22732 4.96219 1.21939 6.77143 1.21939ZM6.77143 0C4.93309 0 4.70297 0.00793527 3.98086 0.0396763C3.2614 0.0714174 2.76676 0.187801 2.33826 0.354442C1.89124 0.529018 1.51299 0.759141 1.13739 1.13739C0.759141 1.51299 0.529018 1.89124 0.354442 2.33561C0.187801 2.76676 0.0714174 3.25875 0.0396763 3.97821C0.00793527 4.70297 0 4.93309 0 6.77143C0 8.60977 0.00793527 8.83989 0.0396763 9.562C0.0714174 10.2815 0.187801 10.7761 0.354442 11.2046C0.529018 11.6516 0.759141 12.0299 1.13739 12.4055C1.51299 12.7811 1.89124 13.0138 2.33561 13.1858C2.76676 13.3524 3.25875 13.4688 3.97821 13.5005C4.70032 13.5323 4.93045 13.5402 6.76878 13.5402C8.60712 13.5402 8.83724 13.5323 9.55935 13.5005C10.2788 13.4688 10.7734 13.3524 11.202 13.1858C11.6463 13.0138 12.0246 12.7811 12.4002 12.4055C12.7758 12.0299 13.0085 11.6516 13.1805 11.2072C13.3471 10.7761 13.4635 10.2841 13.4952 9.56464C13.527 8.84253 13.5349 8.61241 13.5349 6.77407C13.5349 4.93574 13.527 4.70561 13.4952 3.9835C13.4635 3.26404 13.3471 2.76941 13.1805 2.3409C13.0138 1.89124 12.7837 1.51299 12.4055 1.13739C12.0299 0.761786 11.6516 0.529018 11.2072 0.357087C10.7761 0.190446 10.2841 0.0740625 9.56464 0.0423214C8.83989 0.00793527 8.60977 0 6.77143 0Z" fill="#000100"/>
<path d="M6.77126 3.29309C4.85093 3.29309 3.29297 4.85105 3.29297 6.77138C3.29297 8.69172 4.85093 10.2497 6.77126 10.2497C8.6916 10.2497 10.2496 8.69172 10.2496 6.77138C10.2496 4.85105 8.6916 3.29309 6.77126 3.29309ZM6.77126 9.02764C5.52542 9.02764 4.515 8.01722 4.515 6.77138C4.515 5.52555 5.52542 4.51512 6.77126 4.51512C8.0171 4.51512 9.02752 5.52555 9.02752 6.77138C9.02752 8.01722 8.0171 9.02764 6.77126 9.02764Z" fill="#000100"/>
<path d="M11.2003 3.15555C11.2003 3.60522 10.8352 3.96759 10.3882 3.96759C9.93855 3.96759 9.57617 3.60257 9.57617 3.15555C9.57617 2.70588 9.94119 2.34351 10.3882 2.34351C10.8352 2.34351 11.2003 2.70853 11.2003 3.15555Z" fill="#000100"/>
</g>
<defs>
<clipPath id="clip0_1099_1065">
<rect width="13.5429" height="13.5429" fill="white"/>
</clipPath>
</defs>
</svg>
