<svg width="14" height="14" viewBox="0 0 14 14" fill="none" xmlns="http://www.w3.org/2000/svg">
<path d="M9.69308 4.88873C10.564 5.51349 11.6309 5.88109 12.7831 5.88109V3.65584C12.5651 3.65589 12.3476 3.63307 12.1342 3.58771V5.33929C10.982 5.33929 9.91527 4.97169 9.04415 4.34698V8.88805C9.04415 11.1597 7.20914 13.0011 4.94567 13.0011C4.10112 13.0011 3.31614 12.7449 2.66406 12.3055C3.40831 13.0691 4.44621 13.5429 5.59447 13.5429C7.85807 13.5429 9.69317 11.7015 9.69317 9.42971V4.88873H9.69308V4.88873ZM10.4936 2.64373C10.0485 2.15575 9.75631 1.52514 9.69308 0.827962V0.541748H9.07812C9.23292 1.42786 9.7609 2.1849 10.4936 2.64373ZM4.09571 10.5622C3.84704 10.235 3.71266 9.83476 3.71326 9.4232C3.71326 8.38422 4.55258 7.5418 5.58808 7.5418C5.78106 7.54176 5.97288 7.57141 6.15679 7.62997V5.355C5.94187 5.32544 5.72496 5.31289 5.50814 5.31749V7.08822C5.32409 7.02966 5.13217 6.99991 4.93915 7.0001C3.90365 7.0001 3.06437 7.84242 3.06437 8.88154C3.06437 9.61627 3.4839 10.2524 4.09571 10.5622Z" fill="#FF004F"/>
<path d="M9.04429 4.34693C9.91542 4.97164 10.9822 5.33924 12.1344 5.33924V3.58766C11.4912 3.45018 10.9218 3.11288 10.4938 2.64373C9.76099 2.18485 9.23306 1.42781 9.07827 0.541748H7.46295V9.42961C7.4593 10.4658 6.62141 11.3047 5.58813 11.3047C4.97924 11.3047 4.4383 11.0135 4.09571 10.5622C3.48395 10.2524 3.06443 9.61622 3.06443 8.88159C3.06443 7.84256 3.9037 7.00015 4.9392 7.00015C5.1376 7.00015 5.32882 7.03115 5.50819 7.08827V5.31754C3.28449 5.36364 1.49609 7.18708 1.49609 9.42966C1.49609 10.5491 1.94145 11.564 2.66426 12.3055C3.31634 12.7449 4.10131 13.0012 4.94587 13.0012C7.20938 13.0012 9.04434 11.1597 9.04434 8.88805V4.34693H9.04429Z" fill="black"/>
<path d="M12.1328 3.58762V3.114C11.5529 3.11489 10.9843 2.95189 10.4923 2.64364C10.9278 3.12223 11.5014 3.45222 12.1328 3.58762ZM9.07677 0.541705C9.062 0.457021 9.05066 0.37178 9.04279 0.286214V0H6.81247V8.88796C6.80891 9.92396 5.97106 10.7629 4.9377 10.7629C4.63432 10.7629 4.34788 10.6907 4.09421 10.5622C4.4368 11.0134 4.97774 11.3046 5.58663 11.3046C6.61981 11.3046 7.45784 10.4658 7.46145 9.42962V0.541705H9.07677ZM5.50678 5.31749V4.8133C5.32042 4.78773 5.13253 4.77491 4.94441 4.775C2.68071 4.77495 0.845703 6.61647 0.845703 8.88796C0.845703 10.3121 1.56689 11.5671 2.6628 12.3054C1.93999 11.5639 1.49464 10.549 1.49464 9.42957C1.49464 7.18704 3.28299 5.3636 5.50678 5.31749Z" fill="#00F2EA"/>
</svg>
