<svg width="14" height="14" viewBox="0 0 14 14" fill="none" xmlns="http://www.w3.org/2000/svg">
<g clip-path="url(#clip0_1099_1063)">
<path d="M13.2734 3.49032C13.1968 3.20221 13.0459 2.93925 12.8358 2.72778C12.6257 2.51631 12.3637 2.36373 12.076 2.28532C11.0172 2.00061 6.7851 2.00061 6.7851 2.00061C6.7851 2.00061 2.55296 2.00061 1.49415 2.28532C1.20653 2.36373 0.944551 2.51631 0.734427 2.72778C0.524303 2.93925 0.373407 3.20221 0.296841 3.49032C0.0136719 4.55375 0.0136719 6.77139 0.0136719 6.77139C0.0136719 6.77139 0.0136719 8.98903 0.296841 10.0525C0.373407 10.3406 0.524303 10.6035 0.734427 10.815C0.944551 11.0265 1.20653 11.179 1.49415 11.2575C2.55296 11.5422 6.7851 11.5422 6.7851 11.5422C6.7851 11.5422 11.0172 11.5422 12.076 11.2575C12.3637 11.179 12.6257 11.0265 12.8358 10.815C13.0459 10.6035 13.1968 10.3406 13.2734 10.0525C13.5565 8.98903 13.5565 6.77139 13.5565 6.77139C13.5565 6.77139 13.5565 4.55375 13.2734 3.49032Z" fill="#FF0302"/>
<path d="M5.40039 8.78515V4.75769L8.94 6.77142L5.40039 8.78515Z" fill="#FEFEFE"/>
</g>
<defs>
<clipPath id="clip0_1099_1063">
<rect width="13.5429" height="13.5429" fill="white"/>
</clipPath>
</defs>
</svg>
