<svg width="20" height="20" viewBox="0 0 20 20" fill="none" xmlns="http://www.w3.org/2000/svg">
<path d="M9.12115 1.40576C9.45117 0.554271 10.656 0.554273 10.986 1.40576L12.8671 6.25916C13.0089 6.62524 13.3519 6.87442 13.7439 6.89624L18.9411 7.18545C19.8528 7.23619 20.2252 8.38203 19.5173 8.95902L15.4827 12.2478C15.1784 12.4959 15.0474 12.899 15.1478 13.2786L16.4788 18.3108C16.7123 19.1936 15.7376 19.9018 14.9701 19.4069L10.5955 16.5861C10.2655 16.3733 9.84161 16.3733 9.51165 16.5861L5.13707 19.4069C4.36959 19.9018 3.39489 19.1936 3.62839 18.3108L4.95933 13.2786C5.05972 12.899 4.92872 12.4959 4.6244 12.2478L0.589825 8.95901C-0.118008 8.38203 0.254297 7.23619 1.16609 7.18545L6.36323 6.89624C6.75524 6.87442 7.09821 6.62524 7.24009 6.25916L9.12115 1.40576Z" fill="#FFBD13"/>
</svg>
