<svg width="35" height="43" viewBox="0 0 35 43" fill="none" xmlns="http://www.w3.org/2000/svg">
<g clip-path="url(#clip0_917_832)">
<path d="M31.8595 43H3.14046C2.30779 42.9992 1.50946 42.6636 0.920675 42.067C0.331893 41.4703 0.000777101 40.6613 0 39.8174V3.18254C0.000777101 2.33872 0.331893 1.52968 0.920675 0.933011C1.50946 0.33634 2.30779 0.000787514 3.14046 0H31.8595C32.6922 0.000787514 33.4905 0.33634 34.0793 0.933011C34.6681 1.52968 34.9992 2.33872 35 3.18254V39.8174C34.9992 40.6613 34.6681 41.4703 34.0793 42.067C33.4905 42.6636 32.6922 42.9992 31.8595 43ZM3.14046 1.35927C2.66017 1.35927 2.19956 1.55262 1.85995 1.89678C1.52034 2.24094 1.32956 2.70772 1.32956 3.19444V39.8174C1.33034 40.3039 1.52137 40.7702 1.86081 41.1142C2.20026 41.4582 2.66041 41.6518 3.14046 41.6526H31.8595C32.3396 41.6518 32.7997 41.4582 33.1392 41.1142C33.4786 40.7702 33.6697 40.3039 33.6704 39.8174V3.18254C33.6704 2.69582 33.4796 2.22904 33.14 1.88488C32.8004 1.54072 32.3398 1.34737 31.8595 1.34737L3.14046 1.35927Z" fill="#202020"/>
<path d="M31.9273 7.34958H3.07322C2.90455 7.33822 2.74643 7.26229 2.63093 7.1372C2.51543 7.01211 2.45117 6.8472 2.45117 6.67589C2.45117 6.50457 2.51543 6.33967 2.63093 6.21458C2.74643 6.08949 2.90455 6.01356 3.07322 6.0022H31.9273C32.096 6.01356 32.2541 6.08949 32.3696 6.21458C32.4851 6.33967 32.5494 6.50457 32.5494 6.67589C32.5494 6.8472 32.4851 7.01211 32.3696 7.1372C32.2541 7.26229 32.096 7.33822 31.9273 7.34958Z" fill="#202020"/>
<path d="M3.94777 4.51805H3.11717C2.94849 4.50669 2.79039 4.43078 2.67488 4.30569C2.55938 4.1806 2.49512 4.01567 2.49512 3.84436C2.49512 3.67304 2.55938 3.50814 2.67488 3.38305C2.79039 3.25796 2.94849 3.18204 3.11717 3.17068H3.94777C4.03879 3.16454 4.13007 3.17742 4.21598 3.2085C4.30188 3.23958 4.38058 3.2882 4.44718 3.35136C4.51379 3.41452 4.56689 3.49088 4.60319 3.57568C4.63949 3.66048 4.65822 3.75192 4.65822 3.84436C4.65822 3.9368 4.63949 4.02825 4.60319 4.11306C4.56689 4.19786 4.51379 4.27421 4.44718 4.33737C4.38058 4.40052 4.30188 4.44916 4.21598 4.48024C4.13007 4.51132 4.03879 4.52418 3.94777 4.51805Z" fill="#202020"/>
<path d="M7.30863 4.51805H6.47802C6.387 4.52418 6.29571 4.51132 6.20981 4.48024C6.1239 4.44916 6.04522 4.40052 5.97861 4.33737C5.91201 4.27421 5.85891 4.19786 5.82261 4.11306C5.78631 4.02825 5.76758 3.9368 5.76758 3.84436C5.76758 3.75192 5.78631 3.66048 5.82261 3.57568C5.85891 3.49088 5.91201 3.41452 5.97861 3.35136C6.04522 3.2882 6.1239 3.23958 6.20981 3.2085C6.29571 3.17742 6.387 3.16454 6.47802 3.17068H7.30863C7.47731 3.18204 7.63541 3.25796 7.75091 3.38305C7.86642 3.50814 7.93068 3.67304 7.93068 3.84436C7.93068 4.01567 7.86642 4.1806 7.75091 4.30569C7.63541 4.43078 7.47731 4.50669 7.30863 4.51805Z" fill="#202020"/>
<path d="M31.6656 4.51803H30.832C30.6633 4.50666 30.5052 4.43076 30.3897 4.30566C30.2742 4.18057 30.21 4.01565 30.21 3.84434C30.21 3.67302 30.2742 3.50812 30.3897 3.38303C30.5052 3.25794 30.6633 3.18202 30.832 3.17065H31.6656C31.8342 3.18202 31.9923 3.25794 32.1078 3.38303C32.2233 3.50812 32.2876 3.67302 32.2876 3.84434C32.2876 4.01565 32.2233 4.18057 32.1078 4.30566C31.9923 4.43076 31.8342 4.50666 31.6656 4.51803Z" fill="#202020"/>
<path d="M17.4987 38.4403C14.7704 38.4403 12.1033 37.6205 9.83481 36.0844C7.56631 34.5483 5.79824 32.365 4.75416 29.8106C3.71008 27.2562 3.4369 24.4455 3.96916 21.7337C4.50143 19.022 5.81524 16.5311 7.74444 14.576C9.67365 12.621 12.1316 11.2896 14.8075 10.7502C17.4834 10.2108 20.257 10.4876 22.7776 11.5457C25.2982 12.6038 27.4526 14.3955 28.9684 16.6944C30.4842 18.9933 31.2932 21.6961 31.2932 24.4609C31.2932 28.1685 29.8399 31.7242 27.2529 34.3459C24.6659 36.9675 21.1572 38.4403 17.4987 38.4403ZM17.4987 11.8319C15.0333 11.8319 12.6233 12.5728 10.5735 13.9608C8.52363 15.3488 6.92595 17.3217 5.98251 19.6299C5.03906 21.9381 4.79221 24.4779 5.27318 26.9283C5.75414 29.3787 6.94132 31.6295 8.68458 33.3961C10.4278 35.1627 12.6489 36.3658 15.0669 36.8532C17.4848 37.3406 19.9911 37.0905 22.2688 36.1344C24.5465 35.1783 26.4932 33.5592 27.8629 31.4819C29.2326 29.4046 29.9636 26.9623 29.9636 24.4639C29.9598 21.1149 28.6452 17.9042 26.3084 15.5361C23.9716 13.168 20.8034 11.8359 17.4987 11.8319Z" fill="#202020"/>
<path d="M17.499 35.1774C15.5329 35.1755 13.6064 34.6176 11.9361 33.5667C10.2657 32.5157 8.9179 31.0133 8.04414 29.2285C7.17038 27.4436 6.80536 25.4471 6.99013 23.4635C7.1749 21.4799 7.90213 19.5879 9.09003 18.0003C10.2779 16.4127 11.8794 15.1924 13.7143 14.4768C15.5491 13.7611 17.5447 13.5785 19.4764 13.9494C21.4081 14.3203 23.1993 15.23 24.6487 16.5763C26.0981 17.9225 27.1481 19.6519 27.6805 21.5698C27.7237 21.7285 27.7081 21.8978 27.6368 22.0456C27.5654 22.1935 27.4432 22.3099 27.2931 22.3729C26.8838 22.5426 26.5335 22.8319 26.287 23.204C26.0405 23.5761 25.9088 24.0142 25.9088 24.4624C25.9088 24.9106 26.0405 25.3486 26.287 25.7207C26.5335 26.0928 26.8838 26.3822 27.2931 26.5519C27.4438 26.6149 27.5665 26.7317 27.6379 26.8803C27.7093 27.0288 27.7245 27.1988 27.6805 27.3579C27.0527 29.6056 25.7193 31.5848 23.8821 32.9958C22.045 34.4068 19.8041 35.1726 17.499 35.1774ZM17.499 15.0947C15.8008 15.0949 14.1355 15.5692 12.6857 16.4654C11.2359 17.3616 10.0578 18.6451 9.28042 20.1752C8.50308 21.7053 8.15661 23.4228 8.27902 25.1392C8.40144 26.8557 8.98801 28.5049 9.97438 29.9058C10.9608 31.3067 12.3088 32.4052 13.8707 33.0808C15.4325 33.7564 17.1479 33.9831 18.8284 33.7358C20.509 33.4886 22.09 32.7771 23.3978 31.6793C24.7056 30.5815 25.6898 29.1399 26.2424 27.5126C25.7337 27.1878 25.3145 26.7378 25.024 26.2043C24.7335 25.6709 24.5811 25.0716 24.5811 24.4624C24.5811 23.8531 24.7335 23.2538 25.024 22.7204C25.3145 22.187 25.7337 21.7369 26.2424 21.4122C25.6109 19.5707 24.4303 17.9736 22.8639 16.8418C21.2975 15.71 19.4227 15.0995 17.499 15.0947Z" fill="#202020"/>
<path d="M14.3021 28.747C14.1263 28.7464 13.9577 28.6759 13.8326 28.5507L11.778 26.4687C11.6646 26.3402 11.604 26.1726 11.6086 26.0003C11.6132 25.828 11.6827 25.664 11.8028 25.5419C11.9229 25.4198 12.0845 25.3489 12.2545 25.3437C12.4246 25.3385 12.5901 25.3994 12.7172 25.5139L14.2992 27.1171L21.5663 19.7556C21.6908 19.6294 21.8598 19.5585 22.0359 19.5585C22.212 19.5585 22.381 19.6294 22.5055 19.7556C22.6301 19.8818 22.7 20.053 22.7 20.2315C22.7 20.41 22.6301 20.5812 22.5055 20.7074L14.7718 28.5477C14.6469 28.6737 14.4783 28.7453 14.3021 28.747Z" fill="#202020"/>
</g>
<defs>
<clipPath id="clip0_917_832">
<rect width="35" height="43" fill="white"/>
</clipPath>
</defs>
</svg>
